<?xml version="1.0" encoding="UTF-8"?>
<svg id="Calque_1" xmlns="http://www.w3.org/2000/svg" xmlns:xlink="http://www.w3.org/1999/xlink" viewBox="0 0 172.15 182.04">
  <defs>
    <style>
      .cls-1 {
        fill: #1d1d1b;
      }

      .cls-1, .cls-2, .cls-3 {
        stroke: #1d1d1b;
        stroke-linecap: round;
        stroke-miterlimit: 10;
      }

      .cls-2 {
        fill: url(#Dégradé_sans_nom_180);
      }

      .cls-3 {
        fill: url(#Dégradé_sans_nom_5);
      }
    </style>
    <radialGradient id="Dégradé_sans_nom_180" data-name="Dégradé sans nom 180" cx="85.56" cy="134.64" fx="85.56" fy="103.35" r="31.29" gradientUnits="userSpaceOnUse">
      <stop offset="0" stop-color="#fff"/>
      <stop offset=".5" stop-color="#009fe3"/>
      <stop offset="1" stop-color="#29235c"/>
    </radialGradient>
    <radialGradient id="Dégradé_sans_nom_5" data-name="Dégradé sans nom 5" cx="87.84" cy="71.75" fx="87.84" fy="143.89" r="72.14" gradientUnits="userSpaceOnUse">
      <stop offset="0" stop-color="#fff"/>
      <stop offset=".5" stop-color="#009fe3"/>
      <stop offset="1" stop-color="#29235c"/>
    </radialGradient>
  </defs>
  <path class="cls-1" d="M125.71,84.52c-7.87.09-15.37,1.71-22.88,5.04,4.11,2.28,8.27,3.75,12,7.42-5.95-2.3-11.17-4.4-17.53-3.57,4.34,4.64,5.34,11.03,10.38,14.81-3.38-1.17-5.9-3.43-8.2-5.96-1.02-1.1-1.98-2.27-3.27-3.07-2.22-1.39-4.03-.66-4.5,1.9-.04.22-.07.43-.1.64-.22,2.33.71,4.45,1.75,6.46,2.84,5.53,7.05,10.14,10.34,15.38,3.34,5.33,6.76,10.57,7.33,17.12-2.71-6.53-7.64-13.88-12.74-18.84-3.6-3.5-6.97-7.2-9.8-11.61-.17-.27-.34-.54-.51-.82-.33-.54-.65-1.1-.97-1.67,0,0-.01-.01-.01-.02-.32-.56-.62-1.13-.92-1.72-.25.5-.51.99-.78,1.46-.04.09-.09.17-.14.26,0,.01-.01.02-.01.02-.32.57-.64,1.13-.97,1.67-.17.28-.34.55-.51.82-.39.61-.79,1.2-1.21,1.78-2.55,3.65-5.49,6.81-8.59,9.83-5.1,4.96-10.03,12.31-12.74,18.84.57-6.55,3.99-11.79,7.33-17.12,3.29-5.24,7.5-9.85,10.34-15.38,1.04-2.01,1.97-4.13,1.75-6.46-.03-.21-.06-.42-.1-.64-.47-2.56-2.28-3.29-4.5-1.9-1.29.8-2.25,1.97-3.27,3.07-2.3,2.53-4.82,4.79-8.2,5.96,5.04-3.78,6.04-10.17,10.38-14.81-6.36-.83-11.58,1.27-17.53,3.57,3.73-3.67,7.89-5.14,12-7.42-7.51-3.33-15.01-4.95-22.88-5.04,7.21-2.81,14.28-.72,21.94.75-9.48-8.65-22.03-10.79-31.14-18.63,3.64,1.38,7.16,3.01,10.77,4.38,9.25,3.53,18.46,8.18,26.32,13.79,3.9,2.78,7.46,5.8,10.53,9.05.49.51.86.69,1.21.62.35.07.72-.11,1.21-.62,3.07-3.25,6.63-6.27,10.53-9.05,7.86-5.61,17.07-10.26,26.32-13.79,3.61-1.37,7.13-3,10.77-4.38-9.11,7.84-21.66,9.98-31.14,18.63,7.66-1.47,14.73-3.56,21.94-.75Z"/>
  <path class="cls-2" d="M106.22,162.9c-.04.23-.26.43-.74,1.17-.44-6.29-.83-12.11-3.6-17.54-1,6.65-6.89,11.46-6.67,18.71-2.22-2.25-1.79-4.89-1.18-7.42.86-3.61,2.08-7.13,1.88-10.92-.17-3.06-2.11-10.55-3.83-13.34-2.92,4.43-6.07,13.5-4.46,18.67,1.21,3.87,2.58,7.69,3.09,11.76.79,6.25-.66,11.9-4.12,17.24-.49-.53-.17-.98-.06-1.41.1-.43.19-.87.33-1.29,1.68-5.18,1.29-10.03-.78-14.66-.53-1.2-1.17-2.37-1.92-3.54-2.15-3.34-4.52-6.55-6.13-10.22-1.43-3.22-1.8-6.6-1.74-10.1-2.57,4.72-2.88,9.63-.97,14.61.91,2.38,2.31,4.57,3.35,6.91.6,1.34,1.41,2.66,1.17,4.46-4.64-6.42-11.47-11.34-11.71-20.27-1.89,2.17-2.65,4.71-3.42,7.25-.78,2.63-.81,5.38-1.18,8.4-10.84-10.85,15.37-40.35,18.93-49.35.42-.58.82-1.17,1.21-1.78.17-.27.34-.54.51-.82.33-.54.65-1.1.97-1.67,0,0,.01-.01.01-.02.05-.09.1-.17.14-.26.27-.47.53-.96.78-1.46.3.59.6,1.16.92,1.72,0,.01.01.02.01.02.32.57.64,1.13.97,1.67.17.28.34.55.51.82,1.9,7.98,6.41,10.99,9.3,14.96,9.82,10.97,11.38,23.85,8.43,37.7Z"/>
  <path class="cls-3" d="M135.84,78.48c-1.22-.36-3.47-1.92-4.56-2.56.19.3,3.27,4.99,9.73,5.72,1.29.15,5.82.86,6.07.87,1.78.38,9.75-.07,14.19-2.68-2.53,3.38-5.59,5.73-9.94,5.89-2.79.1-5.56-.17-8.27-.73-5.84-1.04-12.91-2.96-13.21-3.04,2.86,1.46,4.97,3.19,7.49,4.49,2.32,1.19,9.59,4.8,15.16,4.94-6.51,2.68-11.78.01-17.19-2.7-.02-.01-.04-.02-.07-.03-4.36-2.07-6.16-2.12-10.27-2.03,0,0,3.62.71,6.07,3.29.43.46.9.89,1.38,1.29,2.67,2.24,5.21,4.64,8.46,6.13,2.75,1.26,5.71,1.65,8.83,2.25-9.18,4.78-25.48-.93-34.91-7.96,3.14,4.7,7.51,8.19,11.6,11.95,3.57,3.28,6.31,7.09,7.25,12.17-7.12-8.16-18.4-9.98-26.01-17.41-.3-.29-.57-.61-.84-.93-.57-.68-2.06-2.14-4.56-2.56,0,0,2,.8,4.62,5.61.35.65.71,1.29,1.1,1.91,2.74,4.33,5.83,8.39,9.51,12.17-5.43.37-15.88-3.69-19.64-7.79-3.93-3.86-6.22-5.01-6.22-5.01.03-.21.06-.42.1-.64.47-2.56,2.28-3.29,4.5-1.9,1.29.8,2.25,1.97,3.27,3.07,2.3,2.53,4.82,4.79,8.2,5.96-5.04-3.78-6.04-10.17-10.38-14.81,6.36-.83,11.58,1.27,17.53,3.57-3.73-3.67-7.89-5.14-12-7.42,7.51-3.33,15.01-4.95,22.88-5.04-7.21-2.81-14.28-.72-21.94.75,9.48-8.65,22.03-10.79,31.14-18.63-3.64,1.38-7.16,3.01-10.77,4.38-9.25,3.53-18.46,8.18-26.32,13.79-3.9,2.78-7.46,5.8-10.53,9.05-.49.51-.86.69-1.21.62-.35.07-.72-.11-1.21-.62-3.07-3.25-6.63-6.27-10.53-9.05-7.86-5.61-17.07-10.26-26.32-13.79-3.61-1.37-7.13-3-10.77-4.38,9.11,7.84,21.66,9.98,31.14,18.63-7.66-1.47-14.73-3.56-21.94-.75,7.87.09,15.37,1.71,22.88,5.04-4.11,2.28-8.27,3.75-12,7.42,5.95-2.3,11.17-4.4,17.53-3.57-4.34,4.64-5.34,11.03-10.38,14.81,3.38-1.17,5.9-3.43,8.2-5.96,1.02-1.1,1.98-2.27,3.27-3.07,2.22-1.39,4.03-.66,4.5,1.9.04.22.07.43.1.64,0,0-2.29,1.15-6.22,5.01-3.76,4.1-14.21,8.16-19.64,7.79,3.68-3.78,6.77-7.84,9.51-12.17.39-.62.75-1.26,1.1-1.91,2.62-4.81,4.62-5.61,4.62-5.61-2.5.42-3.99,1.88-4.56,2.56-.27.32-.54.64-.84.93-7.61,7.43-18.89,9.25-26.01,17.41.94-5.08,3.68-8.89,7.25-12.17,4.09-3.76,8.46-7.25,11.6-11.95-9.43,7.03-25.73,12.74-34.91,7.96,3.12-.6,6.08-.99,8.83-2.25,3.25-1.49,5.79-3.89,8.46-6.13.48-.4.95-.83,1.38-1.29,2.45-2.58,6.07-3.29,6.07-3.29-4.11-.09-5.91-.04-10.27,2.03-.03,0-.05.02-.07.03-5.41,2.71-10.68,5.38-17.19,2.7,5.57-.14,12.84-3.75,15.16-4.94,2.52-1.3,4.63-3.03,7.49-4.49-.3.08-7.37,2-13.21,3.04-2.71.56-5.48.83-8.27.73-4.35-.16-7.41-2.51-9.94-5.89,4.44,2.61,12.41,3.06,14.19,2.68.25-.01,4.78-.72,6.07-.87,6.46-.73,9.54-5.42,9.73-5.72-1.09.64-3.34,2.2-4.56,2.56-2.84.83-5.81,1.11-8.76.9-5.95-.41-11.51-2.52-16.33-6.7-5.29-4.57-7-11.23-9.89-17.2,2.4,1.78,3.73,4.38,5.42,6.69,5.68,7.75,12.7,13.2,22.76,13.72,0,0,3.59.43,7.43-3.28-6.24,1.25-11.6-.62-16.59-3.39-11.08-6.54-15.88-18.21-12.23-30.13,1.91-6.21,4.54-12.3,1.41-18.93,1.68,1.45,2.16,3.33,2.6,5.2,1,4.23.5,8.44-.35,12.61-.81,3.93-1.08,7.89-.41,11.84,1.82,10.81,11.09,16.25,21.37,17.44-8.6-3.22-14.93-8.44-16.77-17.82-.84-4.29-.85-8.63-.33-12.94,1.08-8.99,5.78-15.88,12.61-21.62,4.13-3.48,8.66-6.8,9.75-12.74.68,2.27-.09,4.27-1.03,6.23-1.83,3.87-4.81,6.96-7.18,10.47-7.67,11.38-6.32,24.37,3.59,33.83,5.38,5.13,11.69,8.82,18.43,11.81,4.68,2.08,9.4,4.06,13.65,6.96,3.17,2.16,6.27,4.4,9,7.04,1.85,1.79,3.54,3.75,4.97,6,2.36,4.11,4.81,3.8,6.64-6.82,1.83,10.62,4.28,10.93,6.64,6.82,1.43-2.25,3.12-4.21,4.97-6,2.73-2.64,5.83-4.88,9-7.04,4.25-2.9,8.97-4.88,13.65-6.96,6.74-2.99,13.05-6.68,18.43-11.81,9.91-9.46,11.26-22.45,3.59-33.83-2.37-3.51-5.35-6.6-7.18-10.47-.94-1.96-1.71-3.96-1.03-6.23,1.09,5.94,5.62,9.26,9.75,12.74,6.83,5.74,11.53,12.63,12.61,21.62.52,4.31.51,8.65-.33,12.94-1.84,9.38-8.17,14.6-16.77,17.82,10.28-1.19,19.55-6.63,21.37-17.44.67-3.95.4-7.91-.41-11.84-.85-4.17-1.35-8.38-.35-12.61.44-1.87.92-3.75,2.6-5.2-3.13,6.63-.5,12.72,1.41,18.93,3.65,11.92-1.15,23.59-12.23,30.13-4.99,2.77-10.35,4.64-16.59,3.39,3.84,3.71,7.43,3.28,7.43,3.28,10.06-.52,17.08-5.97,22.76-13.72,1.69-2.31,3.02-4.91,5.42-6.69-2.89,5.97-4.6,12.63-9.89,17.2-4.82,4.18-10.38,6.29-16.33,6.7-2.95.21-5.92-.07-8.76-.9Z"/>
  <path class="cls-1" d="M94.5,76.62c-2.94-.66-4.78-2.17-6.55-3.69-.73-.63-1.27-.87-1.87-.63-.6-.24-1.14,0-1.87.63-1.77,1.52-3.61,3.03-6.55,3.69,2.96-3.69,6.08-6.67,8.42-10.96,2.34,4.29,5.46,7.27,8.42,10.96Z"/>
</svg>